<svg width="24" height="25" viewBox="0 0 24 25" fill="none" xmlns="http://www.w3.org/2000/svg">
<path d="M12 15.5901V19.3593" stroke="#9B8049" stroke-linecap="round" stroke-linejoin="round"/>
<path d="M9.30811 19.3591H14.6927" stroke="#9B8049" stroke-linecap="round" stroke-linejoin="round"/>
<path d="M8.77549 5.35913H15.2249L16.6915 10.3352C16.8901 11.0024 16.8994 11.7116 16.7185 12.3837C16.5377 13.0559 16.1737 13.6647 15.6671 14.1421C14.6725 15.073 13.3611 15.5909 11.9989 15.5909C10.6366 15.5909 9.32524 15.073 8.33058 14.1421C7.82464 13.6643 7.46125 13.0554 7.28085 12.3833C7.10046 11.7111 7.11016 11.0021 7.30885 10.3352L8.77549 5.35913Z" stroke="#9B8049" stroke-linecap="round" stroke-linejoin="round"/>
<path d="M7.41406 9.97791C8.26416 9.61378 9.79272 9.35733 12.0004 10.4746C14.4141 11.6969 16.0167 11.2749 16.8075 10.8677" stroke="#9B8049" stroke-linecap="round" stroke-linejoin="round"/>
</svg>
